<?xml version="1.0" encoding="UTF-8" standalone="no"?>

<svg
   width="158"
   height="158"
   viewBox="0 0 158 158"
   version="1.1"
   id="svg1"
   xmlns="http://www.w3.org/2000/svg">
   <defs
      id="defs1" />
   <g
      id="layer1"
      transform="translate(-20.999998,-21)">
      <g
         id="g1"
         transform="matrix(3.4641526,0,0,3.4641526,-242.2756,-311.55865)">
         <path
            d="m 103.25,113.11 c -0.75,0.06 -1,1.19 -1,2 0,0.81 1.07,0.76 1.51,0.76 0.44,0 0.76,-0.76 1,-1.39 0.24,-0.63 0.25,-1.32 -0.07,-1.32 a 10.36,10.36 0 0 0 -1.44,-0.05 z"
            style="fill:#cf000e"
            id="path1" />
         <path
            d="m 110.26,115.75 c 1.36,-0.26 1.26,-1.1 1.49,-1.72 0.23,-0.62 0.81,-2.52 -0.16,-1.75 a 1.73,1.73 0 0 1 -1,0.42 2.45,2.45 0 0 0 -2,0.59 c -0.58,0.65 -1.2,1.2 -0.94,2 0.15,0.58 1.13,0.74 2.61,0.46 z"
            style="fill:#cf000e"
            id="path2" />
         <path
            d="m 97.44,113.55 a 3.14,3.14 0 0 0 -1.56,1.88 c -0.44,1.07 1.57,0.44 2.2,0.5 0.63,0.06 0.89,0.13 0.95,-0.19 a 17.61,17.61 0 0 0 0,-2.52 2.56,2.56 0 0 0 -1.59,0.33 z"
            style="fill:#cf000e"
            id="path3" />
         <path
            d="m 78.4,141.61 h 40.81 c 1.32,0 2.4,-1.08 2.4,-2.4 v -5.99 c -0.18014,0.16367 -0.38206,0.30164 -0.6,0.41 -2.63127,1.27426 -5.34385,2.37332 -8.12,3.29 -2.71,0.78 -7.06,1.12 -10.46,-0.91 -2.799028,-1.81893 -4.856015,-4.57813 -5.8,-7.78 -0.68,-2.24 -0.61,-5.36 1.87,-3.77 0.375076,0.84371 0.669715,1.72094 0.88,2.62 0.2,1.12 1.12,2 3.19,3.56 2.07,1.56 3.63,3.5 7.23,3.4 2.39979,0.004 4.74884,-0.69071 6.76,-2 1.30975,-0.95569 2.96022,-1.31843 4.55,-1 0.17468,0.0398 0.34296,0.10377 0.5,0.19 v -24.12 c -0.45862,0.19128 -0.9535,0.28002 -1.45,0.26 -0.82,0 -12.43,0.25 -13.56,0.25 -1.13,0 -1.77,0.88 -1.64,1.32 0.13,0.44 0.38,0.63 1.51,0.63 h 6.12 c 0,0 -0.25,1.83 0,1.45 0.25,-0.38 0.44,-1.51 1.07,-1.57 0.63,-0.06 2,-0.13 2,0.69 0.0611,0.92657 -0.15846,1.85005 -0.63,2.65 -0.60784,1.38052 -0.99263,2.8488 -1.14,4.35 -0.13,1.07 -0.76,1.45 -3.34,1.51 -2.58,0.06 -14.07,0.57 -15.89,0.57 -1.82,0 -2.72,-1.13 -2.84,-3.15 -0.12,-2.02 -0.13,-5.3 -0.13,-5.8 0.185028,-1.16167 1.251143,-1.97227 2.42,-1.84 1.77,0.18 3.78,0.5 5.11,0.5 1.33,0 2.65,-0.06 2.65,-0.63 0,-0.57 -1.52,-0.57 -3.66,-0.82 -2.14,-0.25 -5.55,-0.31 -5.55,-0.31 -0.66901,0.85907 -1.802458,1.21028 -2.84,0.88 -1.733784,-0.71328 -2.395884,-2.82432 -1.38,-4.4 1,-1.56 3.92,-1.58 5.11,-0.76 1.016378,0.6434 2.209204,0.95122 3.41,0.88 0.94,0 6,0.19 6,0.19 v -3.09 c 0,-0.69 0.76,-0.63 1.26,-0.63 0.5,0 1.83,0.88 1.83,1.83 v 2 c 0,0 2.27,0.06 5.3,0 3.03,-0.06 4.85,-0.32 6,-0.38 1.52879,-0.032 3.02216,0.46226 4.23,1.4 l 0.03,0.0222 V 98.4 c 0,-1.32 -1.08,-2.4 -2.4,-2.4 H 78.4 C 77.08,96 76,97.08 76,98.4 v 35.69 l 0.11,-0.14 c 2.108725,-2.20836 3.742352,-4.82557 4.8,-7.69 1.08,-3.17 1.72,-4.26 1.36,-9.77 0,0 -1.45,1.53 -3,1.08 -1.55,-0.45 -1.72,-2 0.63,-4 1.791449,-1.59454 3.462663,-3.31923 5,-5.16 1.72,-1.72 4,-0.18 2.72,2.17 0,0 -1.45,1.36 -2.09,1.9 -0.64,0.54 -0.54,1.45 -0.18,2.81 0.36,1.36 1.54,3.44 1.81,4.89 0.436542,1.76688 0.109918,3.6359 -0.9,5.15 -1.27,1.72 -2.08,3 -4,6 -1.92,3 -2,5 -3.26,6.15 -0.888747,0.58603 -2.005118,0.70883 -3,0.33 v 1.4 c 0,1.32 1.08,2.4 2.4,2.4 z m 27.5,-13.79 c -0.057,1.45438 -1.71342,2.25682 -2.89,1.4 -1.08,-0.89 -0.37,-3.43 -0.37,-3.43 0.2373,-0.84192 1.02654,-1.40684 1.9,-1.36 1.63,0.41 1.39,1.93 1.36,3.39 z m 7,-0.44 c -0.44,1.36 -1.08,2.89 -2.71,2.55 -1.63,-0.34 -1.26,-2.21 -1,-2.79 0.39139,-0.6886 0.81864,-1.35618 1.28,-2 2.52,-2.21 2.9,0.88 2.45,2.29 z m -16.75,-7.47 c 0,0 0.14,0.48 4,0.38 3.86,-0.1 5.6,-0.11 8.11,-0.41 2.51,-0.3 3.94,-0.61 4.76,0.78 0.82,1.39 -1,2.41 -3.87,2.75 -3.2566,0.19238 -6.52098,0.21574 -9.78,0.07 -2.58,0 -2.75,-0.07 -3.53,0 -0.78,0.07 -2.14,0.07 -2.38,-1.8 -0.24,-1.87 1.91,-2.04 2.69,-1.77 z m -6.48,8.86 c 1.22,-1.08 2.77,-2.58 2.77,-2.58 0.51,-0.47 1.09,-0.84 1.77,-0.44 0.68,0.4 0.68,1.22 0.37,2 -0.506643,0.98172 -1.153417,1.88451 -1.92,2.68 -1.29,1.63 -2.28,1.39 -2.92,1.15 -0.960181,-0.67596 -0.995333,-2.08707 -0.07,-2.81 z m -3.33,-24.23 c -1,2.17 -3.62,4.53 -4.89,5.61 -1.27,1.08 -4.25,-0.54 -2.35,-2.62 1.9,-2.08 3.08,-3.17 4.34,-4.62 1.26,-1.45 3.89,-0.54 2.9,1.63 z"
            style="fill:#cf000e"
            id="path4" />
      </g>
   </g>
</svg>